<?xml version="1.0" standalone="no"?>
<!DOCTYPE svg PUBLIC "-//W3C//DTD SVG 20010904//EN" "http://www.w3.org/TR/2001/REC-SVG-20010904/DTD/svg10.dtd">
<svg version="1.0" xmlns="http://www.w3.org/2000/svg" viewBox="0 0 300.000000 290.000000" preserveAspectRatio="xMidYMid meet">

        <g transform="translate(0.000000,290.000000) scale(0.100000,-0.100000)" fill="#000000" stroke="none">
                <path d="M757 2875 c-85 -32 -132 -94 -163 -216 -9 -35 -31 -116 -49 -179 -48
-168 -204 -739 -252 -920 -13 -52 -40 -149 -59 -215 -19 -66 -41 -145 -49
-175 -34 -129 -58 -216 -109 -400 -78 -280 -82 -305 -67 -387 24 -130 103
-254 197 -309 25 -15 72 -35 105 -45 58 -18 108 -19 1015 -19 860 0 958 2 987
16 41 21 75 52 92 84 13 25 121 413 204 730 22 85 52 196 66 245 28 98 71 255
81 295 10 43 124 467 176 655 67 244 70 260 51 310 -22 55 -50 83 -96 96 -53
14 -71 -4 -95 -96 -10 -39 -67 -245 -127 -460 -59 -214 -124 -453 -145 -530
-21 -77 -68 -248 -105 -380 -37 -132 -89 -319 -115 -415 -27 -96 -53 -188 -59
-204 -20 -51 -53 -88 -95 -107 -39 -18 -84 -19 -911 -19 l-870 0 -51 24 c-28
13 -59 34 -68 47 -22 32 -20 91 3 120 l19 24 834 5 833 5 42 22 c55 30 87 74
108 148 10 33 32 110 51 172 18 61 40 142 49 180 8 37 40 156 70 263 78 283
194 704 260 945 31 116 67 246 80 290 73 246 77 298 27 357 -51 60 -11 58
-959 57 -716 0 -875 -3 -906 -14z m977 -350 c165 -31 295 -127 361 -266 19
-41 37 -93 41 -115 l6 -42 -59 57 c-114 108 -262 160 -480 168 -269 10 -498
-48 -689 -176 -41 -27 -74 -45 -72 -40 6 19 113 135 174 189 162 142 392 236
586 239 31 1 90 -6 132 -14z m10 -530 c-6 -33 -5 -35 21 -35 39 0 30 -34 -11
-38 -26 -3 -32 -9 -42 -45 -7 -23 -13 -46 -14 -52 0 -5 -4 -20 -9 -33 -7 -19
-5 -24 16 -32 51 -19 15 -60 -41 -46 -40 10 -40 41 2 184 5 17 2 22 -11 22
-25 0 -14 34 13 38 16 2 22 10 22 27 0 20 17 33 58 44 2 1 0 -15 -4 -34z
m-961 -87 c-8 -29 -22 -82 -31 -118 -9 -36 -23 -78 -32 -95 -32 -58 -130 -101
-130 -57 0 11 12 22 33 30 39 14 49 31 77 127 11 39 26 88 32 110 16 55 16 55
42 55 23 0 23 0 9 -52z m131 30 c-21 -65 -41 -154 -37 -165 8 -21 58 -15 82
11 12 13 26 38 31 57 5 19 14 53 20 77 9 35 15 42 36 42 24 0 25 -3 19 -32 -4
-18 -13 -51 -20 -73 -6 -22 -18 -61 -26 -87 -9 -33 -19 -48 -30 -48 -10 0 -19
5 -21 11 -2 6 -14 5 -33 -5 -37 -20 -65 -20 -91 -2 -24 18 -23 75 1 162 22 75
21 74 51 74 22 0 24 -3 18 -22z m272 6 c-6 -15 -4 -15 18 0 34 22 99 21 118
-1 27 -31 30 -61 13 -112 -20 -60 -51 -93 -106 -111 -36 -12 -45 -12 -68 1
l-27 16 -17 -59 c-13 -45 -22 -58 -37 -58 -10 0 -21 3 -23 8 -4 6 18 94 52
207 5 17 14 51 21 78 11 40 16 47 37 47 19 0 24 -4 19 -16z m257 2 c3 -8 9
-46 13 -85 l7 -70 51 82 c41 66 56 83 79 85 15 2 27 1 27 -2 0 -8 -149 -226
-177 -260 -33 -39 -92 -86 -109 -86 -8 0 -14 10 -14 24 0 17 8 27 29 36 16 6
39 22 52 36 24 25 24 25 -6 227 -4 23 -1 27 19 27 13 0 26 -6 29 -14z m551 -8
c17 -23 20 -57 10 -95 -6 -22 -12 -23 -90 -23 -88 0 -99 -6 -71 -44 11 -14 24
-17 65 -15 45 3 52 1 52 -14 0 -32 -88 -49 -133 -25 -35 18 -45 39 -42 85 6
85 73 153 152 153 32 0 46 -5 57 -22z m139 10 c4 -10 7 -10 18 0 7 6 26 12 41
12 26 0 27 -2 16 -24 -6 -15 -21 -26 -36 -28 -41 -5 -68 -54 -89 -160 -4 -21
-11 -28 -29 -28 -29 0 -31 18 -9 79 8 23 14 42 13 44 0 2 13 54 28 105 2 6 12
12 23 12 11 0 21 -6 24 -12z m-1281 -502 c35 -19 104 -47 153 -62 84 -26 103
-28 275 -28 158 -1 198 2 270 21 170 43 305 103 430 190 39 28 -30 -58 -112
-139 -263 -258 -639 -353 -904 -229 -121 56 -225 183 -260 315 -19 72 -19 72
36 17 27 -28 78 -66 112 -85z m-79 -286 c77 -60 12 -209 -104 -240 -116 -32
-182 84 -104 185 53 70 155 97 208 55z" />
                <path d="M1208 1905 c-33 -18 -67 -99 -51 -124 36 -57 133 4 133 85 0 52 -30
67 -82 39z" />
                <path d="M1905 1921 c-11 -5 -29 -18 -39 -30 l-19 -21 61 0 c67 0 79 12 44 43
-21 19 -20 19 -47 8z" />
        </g>
</svg>